<?xml version="1.0" encoding="UTF-8" standalone="no"?>
<!DOCTYPE svg PUBLIC "-//W3C//DTD SVG 1.1//EN"
 "http://www.w3.org/Graphics/SVG/1.1/DTD/svg11.dtd">
<!-- Generated by graphviz version 2.38.0 (20140413.2041)
 -->
<!-- Title: %3 Pages: 1 -->
<svg width="1006pt" height="851pt"
 viewBox="0.00 0.00 1006.00 851.00" xmlns="http://www.w3.org/2000/svg" xmlns:xlink="http://www.w3.org/1999/xlink">
<g id="graph0" class="graph" transform="scale(1 1) rotate(0) translate(4 847)">
<title>%3</title>
<polygon fill="#333333" stroke="none" points="-4,4 -4,-847 1002,-847 1002,4 -4,4"/>
<text text-anchor="middle" x="499" y="-9.2" font-family="Times,serif" font-size="16.00" fill="white">Network Map</text>
<!-- Hub to  -->
<g id="node1" class="node"><title>Hub to </title>
<polygon fill="#006699" stroke="#006699" points="547,-471 437,-471 437,-398 547,-398 547,-471"/>
<text text-anchor="middle" x="492" y="-430.8" font-family="Helvetica,sans-Serif" font-size="14.00" fill="white">Hub to </text>
</g>
<!-- RozlPET2 -->
<g id="node17" class="node"><title>RozlPET2</title>
<polygon fill="#006699" stroke="#006699" points="455,-595 331,-595 331,-522 455,-522 455,-595"/>
<text text-anchor="middle" x="393" y="-554.8" font-family="Helvetica,sans-Serif" font-size="14.00" fill="white">RozlPET2</text>
</g>
<!-- Hub to &#45;&#45;RozlPET2 -->
<g id="edge17" class="edge"><title>Hub to &#45;&#45;RozlPET2</title>
<path fill="none" stroke="green" stroke-dasharray="5,2" d="M477.097,-471.287C471.628,-482.345 464.829,-494.187 457,-504 452.032,-510.226 446.245,-516.246 440.22,-521.862"/>
<text text-anchor="middle" x="517" y="-492.8" font-family="Courier,monospace" font-size="14.00" fill="white"> &#160;&#160;&#160;&#160;&#160;&#160;&#160;&#160;&#160;&#160;&#160;</text>
<text text-anchor="middle" x="406.72" y="-510.662" font-family="Courier,monospace" font-size="14.00" fill="white">Gig1/0/5</text>
<text text-anchor="middle" x="472.597" y="-475.087" font-family="Courier,monospace" font-size="14.00" fill="white">0</text>
</g>
<!-- donsw_mesroz -->
<g id="node2" class="node"><title>donsw_mesroz</title>
<polygon fill="#006699" stroke="#006699" points="784.5,-347 623.5,-347 623.5,-274 784.5,-274 784.5,-347"/>
<text text-anchor="middle" x="704" y="-306.8" font-family="Helvetica,sans-Serif" font-size="14.00" fill="white">donsw_mesroz</text>
</g>
<!-- donsw_mesroz&#45;&#45;Hub to  -->
<g id="edge1" class="edge"><title>donsw_mesroz&#45;&#45;Hub to </title>
<path fill="none" stroke="green" stroke-dasharray="5,2" d="M650.673,-347.147C633.488,-358.139 614.181,-369.978 596,-380 579.634,-389.022 574.679,-389.571 558,-398 554.516,-399.761 550.943,-401.596 547.348,-403.464"/>
<text text-anchor="middle" x="671" y="-368.8" font-family="Courier,monospace" font-size="14.00" fill="white"> &#160;&#160;&#160;&#160;&#160;&#160;&#160;&#160;&#160;&#160;&#160;</text>
<text text-anchor="middle" x="551.848" y="-392.264" font-family="Courier,monospace" font-size="14.00" fill="white">0</text>
<text text-anchor="middle" x="625.673" y="-350.947" font-family="Courier,monospace" font-size="14.00" fill="white">Fas0/1</text>
</g>
<!-- donswmes1 -->
<g id="node7" class="node"><title>donswmes1</title>
<polygon fill="#006699" stroke="#006699" points="842,-471 702,-471 702,-398 842,-398 842,-471"/>
<text text-anchor="middle" x="772" y="-430.8" font-family="Helvetica,sans-Serif" font-size="14.00" fill="white">donswmes1</text>
</g>
<!-- donsw_mesroz&#45;&#45;donswmes1 -->
<g id="edge14" class="edge"><title>donsw_mesroz&#45;&#45;donswmes1</title>
<path fill="none" stroke="green" stroke-dasharray="5,2" d="M724.033,-347.172C727.366,-353.123 730.784,-359.234 734,-365 739.962,-375.69 746.429,-387.329 752.308,-397.93"/>
<text text-anchor="middle" x="793" y="-368.8" font-family="Courier,monospace" font-size="14.00" fill="white"> &#160;&#160;&#160;&#160;&#160;&#160;&#160;&#160;&#160;&#160;&#160;</text>
<text text-anchor="middle" x="723.308" y="-386.73" font-family="Courier,monospace" font-size="14.00" fill="white">Gig0/24</text>
<text text-anchor="middle" x="699.033" y="-350.972" font-family="Courier,monospace" font-size="14.00" fill="white">Gig0/1</text>
</g>
<!-- Elevator -->
<g id="node3" class="node"><title>Elevator</title>
<polygon fill="#006699" stroke="#006699" points="683,-471 567,-471 567,-398 683,-398 683,-471"/>
<text text-anchor="middle" x="625" y="-430.8" font-family="Helvetica,sans-Serif" font-size="14.00" fill="white">Elevator</text>
</g>
<!-- ServMES -->
<g id="node4" class="node"><title>ServMES</title>
<polygon fill="#006699" stroke="#006699" points="832,-595 712,-595 712,-522 832,-522 832,-595"/>
<text text-anchor="middle" x="772" y="-554.8" font-family="Helvetica,sans-Serif" font-size="14.00" fill="white">ServMES</text>
</g>
<!-- Elevator&#45;&#45;ServMES -->
<g id="edge2" class="edge"><title>Elevator&#45;&#45;ServMES</title>
<path fill="none" stroke="green" stroke-dasharray="5,2" d="M642.546,-471.29C649.363,-482.724 657.967,-494.789 668,-504 672.039,-507.707 691.179,-517.809 711.961,-528.249"/>
<text text-anchor="middle" x="718" y="-492.8" font-family="Courier,monospace" font-size="14.00" fill="white"> &#160;&#160;&#160;&#160;&#160;&#160;&#160;&#160;&#160;&#160;&#160;</text>
<text text-anchor="middle" x="678.461" y="-517.049" font-family="Courier,monospace" font-size="14.00" fill="white">Gig1/1/1</text>
<text text-anchor="middle" x="667.546" y="-475.09" font-family="Courier,monospace" font-size="14.00" fill="white">Gig0/1</text>
</g>
<!-- PulVarki -->
<g id="node15" class="node"><title>PulVarki</title>
<polygon fill="#006699" stroke="#006699" points="672,-719 556,-719 556,-646 672,-646 672,-719"/>
<text text-anchor="middle" x="614" y="-678.8" font-family="Helvetica,sans-Serif" font-size="14.00" fill="white">PulVarki</text>
</g>
<!-- Elevator&#45;&#45;PulVarki -->
<g id="edge13" class="edge"><title>Elevator&#45;&#45;PulVarki</title>
<path fill="none" stroke="green" stroke-dasharray="5,2" d="M613.761,-471.31C609.477,-486.738 605.117,-505.087 603,-522 597.691,-564.414 602.75,-613.518 607.624,-645.915"/>
<text text-anchor="middle" x="653" y="-554.8" font-family="Courier,monospace" font-size="14.00" fill="white"> &#160;&#160;&#160;&#160;&#160;&#160;&#160;&#160;&#160;&#160;&#160;</text>
<text text-anchor="middle" x="570.124" y="-634.715" font-family="Courier,monospace" font-size="14.00" fill="white">Gig1/0/28</text>
<text text-anchor="middle" x="588.761" y="-475.11" font-family="Courier,monospace" font-size="14.00" fill="white">Gig0/2</text>
</g>
<!-- PulFilter -->
<g id="node8" class="node"><title>PulFilter</title>
<polygon fill="#006699" stroke="#006699" points="998,-719 882,-719 882,-646 998,-646 998,-719"/>
<text text-anchor="middle" x="940" y="-678.8" font-family="Helvetica,sans-Serif" font-size="14.00" fill="white">PulFilter</text>
</g>
<!-- ServMES&#45;&#45;PulFilter -->
<g id="edge7" class="edge"><title>ServMES&#45;&#45;PulFilter</title>
<path fill="none" stroke="green" stroke-dasharray="5,2" d="M821.044,-595.115C843.029,-611.081 868.903,-629.87 890.895,-645.84"/>
<text text-anchor="middle" x="917" y="-616.8" font-family="Courier,monospace" font-size="14.00" fill="white"> &#160;&#160;&#160;&#160;&#160;&#160;&#160;&#160;&#160;&#160;&#160;</text>
<text text-anchor="middle" x="853.395" y="-634.64" font-family="Courier,monospace" font-size="14.00" fill="white">Gig1/0/28</text>
<text text-anchor="middle" x="854.544" y="-598.915" font-family="Courier,monospace" font-size="14.00" fill="white">Gig1/1/3</text>
</g>
<!-- ServMES&#45;&#45;PulVarki -->
<g id="edge11" class="edge"><title>ServMES&#45;&#45;PulVarki</title>
<path fill="none" stroke="green" stroke-dasharray="5,2" d="M711.623,-589.001C707.035,-591.078 702.457,-593.1 698,-595 677.042,-603.936 667.086,-597.928 650,-613 640.026,-621.798 632.382,-634.036 626.758,-645.737"/>
<text text-anchor="middle" x="700" y="-616.8" font-family="Courier,monospace" font-size="14.00" fill="white"> &#160;&#160;&#160;&#160;&#160;&#160;&#160;&#160;&#160;&#160;&#160;</text>
<text text-anchor="middle" x="664.258" y="-634.537" font-family="Courier,monospace" font-size="14.00" fill="white">Gig1/0/27</text>
<text text-anchor="middle" x="678.123" y="-577.801" font-family="Courier,monospace" font-size="14.00" fill="white">Gig1/1/2</text>
</g>
<!-- RozlLine3&#45;1 -->
<g id="node5" class="node"><title>RozlLine3&#45;1</title>
<polygon fill="#006699" stroke="#006699" points="304,-347 164,-347 164,-274 304,-274 304,-347"/>
<text text-anchor="middle" x="234" y="-306.8" font-family="Helvetica,sans-Serif" font-size="14.00" fill="white">RozlLine3&#45;1</text>
</g>
<!-- RozlPET4 -->
<g id="node6" class="node"><title>RozlPET4</title>
<polygon fill="#006699" stroke="#006699" points="418,-471 294,-471 294,-398 418,-398 418,-471"/>
<text text-anchor="middle" x="356" y="-430.8" font-family="Helvetica,sans-Serif" font-size="14.00" fill="white">RozlPET4</text>
</g>
<!-- RozlLine3&#45;1&#45;&#45;RozlPET4 -->
<g id="edge3" class="edge"><title>RozlLine3&#45;1&#45;&#45;RozlPET4</title>
<path fill="none" stroke="green" stroke-dasharray="5,2" d="M269.615,-347.115C285.51,-363.01 304.204,-381.704 320.129,-397.629"/>
<text text-anchor="middle" x="353" y="-368.8" font-family="Courier,monospace" font-size="14.00" fill="white"> &#160;&#160;&#160;&#160;&#160;&#160;&#160;&#160;&#160;&#160;&#160;</text>
<text text-anchor="middle" x="282.629" y="-386.429" font-family="Courier,monospace" font-size="14.00" fill="white">Gig1/0/27</text>
<text text-anchor="middle" x="232.115" y="-350.915" font-family="Courier,monospace" font-size="14.00" fill="white">Gig1/0/27</text>
</g>
<!-- RozlLineKEG -->
<g id="node18" class="node"><title>RozlLineKEG</title>
<polygon fill="#006699" stroke="#006699" points="146,-471 0,-471 0,-398 146,-398 146,-471"/>
<text text-anchor="middle" x="73" y="-430.8" font-family="Helvetica,sans-Serif" font-size="14.00" fill="white">RozlLineKEG</text>
</g>
<!-- RozlLine3&#45;1&#45;&#45;RozlLineKEG -->
<g id="edge19" class="edge"><title>RozlLine3&#45;1&#45;&#45;RozlLineKEG</title>
<path fill="none" stroke="green" stroke-dasharray="5,2" d="M186.999,-347.115C165.93,-363.081 141.135,-381.87 120.059,-397.84"/>
<text text-anchor="middle" x="214" y="-368.8" font-family="Courier,monospace" font-size="14.00" fill="white"> &#160;&#160;&#160;&#160;&#160;&#160;&#160;&#160;&#160;&#160;&#160;</text>
<text text-anchor="middle" x="82.5591" y="-386.64" font-family="Courier,monospace" font-size="14.00" fill="white">Gig1/0/28</text>
<text text-anchor="middle" x="149.499" y="-350.915" font-family="Courier,monospace" font-size="14.00" fill="white">Gig1/0/28</text>
</g>
<!-- RozlPET4&#45;&#45;RozlPET2 -->
<g id="edge15" class="edge"><title>RozlPET4&#45;&#45;RozlPET2</title>
<path fill="none" stroke="green" stroke-dasharray="5,2" d="M352.68,-471.315C352.705,-482.03 353.766,-493.671 357,-504 358.907,-510.09 361.749,-516.12 365.016,-521.815"/>
<text text-anchor="middle" x="407" y="-492.8" font-family="Courier,monospace" font-size="14.00" fill="white"> &#160;&#160;&#160;&#160;&#160;&#160;&#160;&#160;&#160;&#160;&#160;</text>
<text text-anchor="middle" x="327.516" y="-510.615" font-family="Courier,monospace" font-size="14.00" fill="white">Gig1/0/27</text>
<text text-anchor="middle" x="315.18" y="-475.115" font-family="Courier,monospace" font-size="14.00" fill="white">Gig1/0/28</text>
</g>
<!-- donswmes1&#45;&#45;ServMES -->
<g id="edge4" class="edge"><title>donswmes1&#45;&#45;ServMES</title>
<path fill="none" stroke="green" stroke-dasharray="5,2" d="M772,-471.115C772,-487.01 772,-505.704 772,-521.629"/>
<text text-anchor="middle" x="822" y="-492.8" font-family="Courier,monospace" font-size="14.00" fill="white"> &#160;&#160;&#160;&#160;&#160;&#160;&#160;&#160;&#160;&#160;&#160;</text>
<text text-anchor="middle" x="809.5" y="-510.429" font-family="Courier,monospace" font-size="14.00" fill="white">Gig1/0/10</text>
<text text-anchor="middle" x="743" y="-474.915" font-family="Courier,monospace" font-size="14.00" fill="white">Gig0/10</text>
</g>
<!-- PulKeraflux -->
<g id="node9" class="node"><title>PulKeraflux</title>
<polygon fill="#006699" stroke="#006699" points="884.5,-843 747.5,-843 747.5,-770 884.5,-770 884.5,-843"/>
<text text-anchor="middle" x="816" y="-802.8" font-family="Helvetica,sans-Serif" font-size="14.00" fill="white">PulKeraflux</text>
</g>
<!-- PulFilter&#45;&#45;PulKeraflux -->
<g id="edge5" class="edge"><title>PulFilter&#45;&#45;PulKeraflux</title>
<path fill="none" stroke="green" stroke-dasharray="5,2" d="M903.801,-719.115C887.645,-735.01 868.645,-753.704 852.459,-769.629"/>
<text text-anchor="middle" x="936" y="-740.8" font-family="Courier,monospace" font-size="14.00" fill="white"> &#160;&#160;&#160;&#160;&#160;&#160;&#160;&#160;&#160;&#160;&#160;</text>
<text text-anchor="middle" x="814.959" y="-758.429" font-family="Courier,monospace" font-size="14.00" fill="white">Gig1/0/28</text>
<text text-anchor="middle" x="866.301" y="-722.915" font-family="Courier,monospace" font-size="14.00" fill="white">Gig1/0/27</text>
</g>
<!-- PulKeraflux&#45;&#45;ServMES -->
<g id="edge16" class="edge"><title>PulKeraflux&#45;&#45;ServMES</title>
<path fill="none" stroke="green" stroke-dasharray="5,2" d="M793.709,-769.863C785.505,-754.768 777.196,-736.619 773,-719 763.088,-677.381 764.776,-627.902 767.672,-595.21"/>
<text text-anchor="middle" x="823" y="-678.8" font-family="Courier,monospace" font-size="14.00" fill="white"> &#160;&#160;&#160;&#160;&#160;&#160;&#160;&#160;&#160;&#160;&#160;</text>
<text text-anchor="middle" x="734.172" y="-599.01" font-family="Courier,monospace" font-size="14.00" fill="white">Gig1/1/4</text>
<text text-anchor="middle" x="756.209" y="-758.663" font-family="Courier,monospace" font-size="14.00" fill="white">Gig1/0/27</text>
</g>
<!-- RozlLine3&#45;2 -->
<g id="node10" class="node"><title>RozlLine3&#45;2</title>
<polygon fill="#006699" stroke="#006699" points="304,-223 164,-223 164,-150 304,-150 304,-223"/>
<text text-anchor="middle" x="234" y="-182.8" font-family="Helvetica,sans-Serif" font-size="14.00" fill="white">RozlLine3&#45;2</text>
</g>
<!-- RozlLine3&#45;2&#45;&#45;RozlLine3&#45;1 -->
<g id="edge6" class="edge"><title>RozlLine3&#45;2&#45;&#45;RozlLine3&#45;1</title>
<path fill="none" stroke="green" stroke-dasharray="5,2" d="M234,-223.115C234,-239.01 234,-257.704 234,-273.629"/>
<text text-anchor="middle" x="284" y="-244.8" font-family="Courier,monospace" font-size="14.00" fill="white"> &#160;&#160;&#160;&#160;&#160;&#160;&#160;&#160;&#160;&#160;&#160;</text>
<text text-anchor="middle" x="200.5" y="-262.429" font-family="Courier,monospace" font-size="14.00" fill="white">Gig1/0/1</text>
<text text-anchor="middle" x="200.5" y="-226.915" font-family="Courier,monospace" font-size="14.00" fill="white">Gig1/0/1</text>
</g>
<!-- RozlCIP -->
<g id="node11" class="node"><title>RozlCIP</title>
<polygon fill="#006699" stroke="#006699" points="275.5,-471 164.5,-471 164.5,-398 275.5,-398 275.5,-471"/>
<text text-anchor="middle" x="220" y="-430.8" font-family="Helvetica,sans-Serif" font-size="14.00" fill="white">RozlCIP</text>
</g>
<!-- RozlLine6&#45;1 -->
<g id="node12" class="node"><title>RozlLine6&#45;1</title>
<polygon fill="#006699" stroke="#006699" points="253,-595 113,-595 113,-522 253,-522 253,-595"/>
<text text-anchor="middle" x="183" y="-554.8" font-family="Helvetica,sans-Serif" font-size="14.00" fill="white">RozlLine6&#45;1</text>
</g>
<!-- RozlCIP&#45;&#45;RozlLine6&#45;1 -->
<g id="edge8" class="edge"><title>RozlCIP&#45;&#45;RozlLine6&#45;1</title>
<path fill="none" stroke="green" stroke-dasharray="5,2" d="M209.199,-471.115C204.378,-487.01 198.709,-505.704 193.879,-521.629"/>
<text text-anchor="middle" x="254" y="-492.8" font-family="Courier,monospace" font-size="14.00" fill="white"> &#160;&#160;&#160;&#160;&#160;&#160;&#160;&#160;&#160;&#160;&#160;</text>
<text text-anchor="middle" x="160.379" y="-510.429" font-family="Courier,monospace" font-size="14.00" fill="white">Gig1/0/1</text>
<text text-anchor="middle" x="175.699" y="-474.915" font-family="Courier,monospace" font-size="14.00" fill="white">Gig1/0/1</text>
</g>
<!-- donsw_ciproz1 -->
<g id="node13" class="node"><title>donsw_ciproz1</title>
<polygon fill="#006699" stroke="#006699" points="572.5,-347 411.5,-347 411.5,-274 572.5,-274 572.5,-347"/>
<text text-anchor="middle" x="492" y="-306.8" font-family="Helvetica,sans-Serif" font-size="14.00" fill="white">donsw_ciproz1</text>
</g>
<!-- donsw_ciproz1&#45;&#45;Hub to  -->
<g id="edge9" class="edge"><title>donsw_ciproz1&#45;&#45;Hub to </title>
<path fill="none" stroke="green" stroke-dasharray="5,2" d="M492,-347.115C492,-363.01 492,-381.704 492,-397.629"/>
<text text-anchor="middle" x="542" y="-368.8" font-family="Courier,monospace" font-size="14.00" fill="white"> &#160;&#160;&#160;&#160;&#160;&#160;&#160;&#160;&#160;&#160;&#160;</text>
<text text-anchor="middle" x="487.5" y="-386.429" font-family="Courier,monospace" font-size="14.00" fill="white">0</text>
<text text-anchor="middle" x="467" y="-350.915" font-family="Courier,monospace" font-size="14.00" fill="white">Fas0/4</text>
</g>
<!-- RozlLineBANK1 -->
<g id="node14" class="node"><title>RozlLineBANK1</title>
<polygon fill="#006699" stroke="#006699" points="316.5,-99 151.5,-99 151.5,-26 316.5,-26 316.5,-99"/>
<text text-anchor="middle" x="234" y="-58.8" font-family="Helvetica,sans-Serif" font-size="14.00" fill="white">RozlLineBANK1</text>
</g>
<!-- RozlLineBANK1&#45;&#45;RozlLine3&#45;2 -->
<g id="edge10" class="edge"><title>RozlLineBANK1&#45;&#45;RozlLine3&#45;2</title>
<path fill="none" stroke="green" stroke-dasharray="5,2" d="M234,-99.1154C234,-115.01 234,-133.704 234,-149.629"/>
<text text-anchor="middle" x="284" y="-120.8" font-family="Courier,monospace" font-size="14.00" fill="white"> &#160;&#160;&#160;&#160;&#160;&#160;&#160;&#160;&#160;&#160;&#160;</text>
<text text-anchor="middle" x="196.5" y="-138.429" font-family="Courier,monospace" font-size="14.00" fill="white">Gig1/0/27</text>
<text text-anchor="middle" x="196.5" y="-102.915" font-family="Courier,monospace" font-size="14.00" fill="white">Gig1/0/28</text>
</g>
<!-- donsw_ciproz2 -->
<g id="node16" class="node"><title>donsw_ciproz2</title>
<polygon fill="#006699" stroke="#006699" points="572.5,-223 411.5,-223 411.5,-150 572.5,-150 572.5,-223"/>
<text text-anchor="middle" x="492" y="-182.8" font-family="Helvetica,sans-Serif" font-size="14.00" fill="white">donsw_ciproz2</text>
</g>
<!-- donsw_ciproz2&#45;&#45;donsw_ciproz1 -->
<g id="edge12" class="edge"><title>donsw_ciproz2&#45;&#45;donsw_ciproz1</title>
<path fill="none" stroke="green" stroke-dasharray="5,2" d="M492,-223.115C492,-239.01 492,-257.704 492,-273.629"/>
<text text-anchor="middle" x="542" y="-244.8" font-family="Courier,monospace" font-size="14.00" fill="white"> &#160;&#160;&#160;&#160;&#160;&#160;&#160;&#160;&#160;&#160;&#160;</text>
<text text-anchor="middle" x="467" y="-262.429" font-family="Courier,monospace" font-size="14.00" fill="white">Fas0/2</text>
<text text-anchor="middle" x="467" y="-226.915" font-family="Courier,monospace" font-size="14.00" fill="white">Fas0/5</text>
</g>
<!-- RozlLineKEG&#45;&#45;RozlLine6&#45;1 -->
<g id="edge18" class="edge"><title>RozlLineKEG&#45;&#45;RozlLine6&#45;1</title>
<path fill="none" stroke="green" stroke-dasharray="5,2" d="M79.9399,-471.279C83.3974,-482.584 88.5054,-494.573 96,-504 101.186,-510.523 107.401,-516.455 114.091,-521.792"/>
<text text-anchor="middle" x="146" y="-492.8" font-family="Courier,monospace" font-size="14.00" fill="white"> &#160;&#160;&#160;&#160;&#160;&#160;&#160;&#160;&#160;&#160;&#160;</text>
<text text-anchor="middle" x="76.5909" y="-510.592" font-family="Courier,monospace" font-size="14.00" fill="white">Gig1/0/28</text>
<text text-anchor="middle" x="42.4399" y="-475.079" font-family="Courier,monospace" font-size="14.00" fill="white">Gig1/0/27</text>
</g>
</g>
</svg>
